<svg width="117" height="118" viewBox="0 0 117 118" fill="none" xmlns="http://www.w3.org/2000/svg">
<ellipse cx="58.5" cy="59" rx="11.7" ry="11.8" stroke="#CCFF00" stroke-width="3"/>
<path d="M65.3849 20.2654C63.9515 19.6666 62.1343 19.6666 58.5 19.6666C54.8657 19.6666 53.0485 19.6666 51.6151 20.2654C49.7039 21.0639 48.1854 22.5953 47.3937 24.5228C47.0324 25.4028 46.8909 26.4261 46.8356 27.9187C46.7543 30.1123 45.6388 32.1427 43.7539 33.2403C41.869 34.3378 39.5678 34.2968 37.6436 33.2711C36.3342 32.5731 35.3848 32.1849 34.4485 32.0606C32.3975 31.7883 30.3233 32.3488 28.6821 33.6189C27.4512 34.5715 26.5426 36.1587 24.7254 39.333C22.9082 42.5074 21.9996 44.0945 21.7971 45.6459C21.5271 47.7144 22.0829 49.8064 23.3422 51.4616C23.917 52.2172 24.7249 52.8523 25.9787 53.6468C27.8219 54.8148 29.0078 56.8046 29.0077 59C29.0076 61.1953 27.8217 63.1847 25.9787 64.3526C24.7247 65.1473 23.9167 65.7824 23.3419 66.538C22.0825 68.1932 21.5267 70.2852 21.7967 72.3537C21.9993 73.9051 22.9078 75.4923 24.725 78.6666C26.5422 81.841 27.4508 83.4281 28.6817 84.3807C30.3229 85.6508 32.3971 86.2113 34.4481 85.939C35.3843 85.8147 36.3337 85.4266 37.643 84.7287C39.5674 83.7029 41.8687 83.6619 43.7538 84.7595C45.6388 85.8571 46.7542 87.8877 46.8356 90.0814C46.8909 91.574 47.0324 92.5972 47.3937 93.4771C48.1854 95.4046 49.7039 96.9361 51.6151 97.7345C53.0485 98.3333 54.8657 98.3333 58.5 98.3333C62.1343 98.3333 63.9515 98.3333 65.3849 97.7345C67.2962 96.9361 68.8146 95.4046 69.6063 93.4771C69.9677 92.5971 70.1091 91.5738 70.1644 90.0811C70.2457 87.8875 71.3611 85.8571 73.2459 84.7595C75.1309 83.6617 77.4323 83.7027 79.3568 84.7285C80.666 85.4264 81.6153 85.8144 82.5515 85.9388C84.6025 86.2111 86.6768 85.6505 88.318 84.3804C89.5488 83.4279 90.4574 81.8407 92.2746 78.6664C94.0918 75.492 95.0004 73.9049 95.2029 72.3535C95.4729 70.2849 94.9171 68.193 93.6578 66.5377C93.0829 65.7822 92.275 65.147 91.0211 64.3524C89.178 63.1845 87.9922 61.1949 87.9923 58.9996C87.9924 56.8046 89.1782 54.8152 91.0211 53.6474C92.2752 52.8527 93.0833 52.2175 93.6581 51.4619C94.9175 49.8067 95.4733 47.7147 95.2033 45.6462C95.0008 44.0948 94.0922 42.5076 92.275 39.3333C90.4578 36.159 89.5492 34.5718 88.3183 33.6192C86.6771 32.3491 84.6029 31.7886 82.5519 32.0609C81.6157 32.1852 80.6663 32.5733 79.357 33.2712C77.4326 34.297 75.1313 34.338 73.2462 33.2404C71.3612 32.1428 70.2458 30.1122 70.1644 27.9185C70.1091 26.426 69.9676 25.4027 69.6063 24.5228C68.8146 22.5953 67.2962 21.0639 65.3849 20.2654Z" stroke="#CCFF00" stroke-width="3"/>
</svg>
