<svg width="117" height="117" viewBox="0 0 117 117" fill="none" xmlns="http://www.w3.org/2000/svg">
<circle cx="50.7001" cy="35.1" r="15.6" stroke="#CCFF00" stroke-width="3"/>
<ellipse cx="50.6999" cy="78" rx="27.3" ry="15.6" stroke="#CCFF00" stroke-width="3"/>
<path d="M82.0673 59.9258L82.9546 58.7164L82.9546 58.7164L82.0673 59.9258ZM85.8001 45.5963L84.7627 46.6797C85.3428 47.2351 86.2574 47.2351 86.8375 46.6797L85.8001 45.5963ZM89.533 59.9258L88.6456 58.7164L88.6456 58.7164L89.533 59.9258ZM85.8001 61.7275L85.8001 63.2275H85.8001L85.8001 61.7275ZM82.9546 58.7164C81.2846 57.491 79.3932 55.925 77.9341 54.2379C76.4358 52.5054 75.6001 50.8816 75.6001 49.5173H72.6001C72.6001 51.9922 74.0358 54.3164 75.665 56.2003C77.3334 58.1294 79.4257 59.848 81.1799 61.1351L82.9546 58.7164ZM75.6001 49.5173C75.6001 46.7756 76.909 45.1828 78.472 44.6349C80.077 44.0722 82.4292 44.4454 84.7627 46.6797L86.8375 44.5128C83.9062 41.7062 80.4084 40.7771 77.4796 41.8038C74.5088 42.8452 72.6001 45.7333 72.6001 49.5173H75.6001ZM90.4203 61.1352C92.1745 59.8481 94.2668 58.1295 95.9352 56.2003C97.5644 54.3164 99.0001 51.9922 99.0001 49.5172H96.0001C96.0001 50.8817 95.1643 52.5054 93.666 54.2379C92.207 55.925 90.3156 57.4911 88.6456 58.7164L90.4203 61.1352ZM99.0001 49.5172C99.0001 45.7333 97.0914 42.8452 94.1206 41.8038C91.1918 40.7771 87.694 41.7062 84.7627 44.5128L86.8375 46.6797C89.171 44.4454 91.5232 44.0722 93.1282 44.6348C94.6912 45.1828 96.0001 46.7756 96.0001 49.5172H99.0001ZM81.1799 61.1351C82.7147 62.2613 83.941 63.2275 85.8001 63.2275L85.8001 60.2275C85.1046 60.2275 84.6939 59.9926 82.9546 58.7164L81.1799 61.1351ZM88.6456 58.7164C86.9063 59.9926 86.4957 60.2275 85.8001 60.2275L85.8001 63.2275C87.6592 63.2275 88.8855 62.2613 90.4203 61.1352L88.6456 58.7164Z" fill="#CCFF00"/>
</svg>
