<svg width="24" height="24" viewBox="0 0 24 24" fill="none" xmlns="http://www.w3.org/2000/svg">
<path fill-rule="evenodd" clip-rule="evenodd" d="M0.86202 20.7596C0.282972 21.3386 0.282973 22.2774 0.86202 22.8565C1.44107 23.4355 2.37989 23.4355 2.95894 22.8565L11.9037 13.9117L20.8485 22.8565C21.4276 23.4355 22.3664 23.4355 22.9454 22.8565C23.5245 22.2774 23.5245 21.3386 22.9454 20.7596L14.0006 11.8148L22.67 3.14546C23.249 2.56641 23.249 1.62759 22.67 1.04854C22.0909 0.469496 21.1521 0.469496 20.573 1.04854L11.9037 9.71786L3.23441 1.04855C2.65536 0.469507 1.71654 0.469508 1.13749 1.04856C0.558447 1.6276 0.558447 2.56642 1.13749 3.14547L9.8068 11.8148L0.86202 20.7596Z" fill="#020C1B"/>
</svg>
