<svg width="90" height="56" viewBox="0 0 90 56" fill="none" xmlns="http://www.w3.org/2000/svg">
<path d="M0.555 10.83C0.555 10 0.725 9.265 1.065 8.625C1.415 7.985 1.885 7.49 2.475 7.14C3.075 6.78 3.74 6.6 4.47 6.6C5.01 6.6 5.54 6.72 6.06 6.96C6.59 7.19 7.01 7.5 7.32 7.89V3.9H9.045V15H7.32V13.755C7.04 14.155 6.65 14.485 6.15 14.745C5.66 15.005 5.095 15.135 4.455 15.135C3.735 15.135 3.075 14.955 2.475 14.595C1.885 14.225 1.415 13.715 1.065 13.065C0.725 12.405 0.555 11.66 0.555 10.83ZM7.32 10.86C7.32 10.29 7.2 9.795 6.96 9.375C6.73 8.955 6.425 8.635 6.045 8.415C5.665 8.195 5.255 8.085 4.815 8.085C4.375 8.085 3.965 8.195 3.585 8.415C3.205 8.625 2.895 8.94 2.655 9.36C2.425 9.77 2.31 10.26 2.31 10.83C2.31 11.4 2.425 11.9 2.655 12.33C2.895 12.76 3.205 13.09 3.585 13.32C3.975 13.54 4.385 13.65 4.815 13.65C5.255 13.65 5.665 13.54 6.045 13.32C6.425 13.1 6.73 12.78 6.96 12.36C7.2 11.93 7.32 11.43 7.32 10.86ZM18.866 10.665C18.866 10.975 18.846 11.255 18.806 11.505H12.491C12.541 12.165 12.786 12.695 13.226 13.095C13.666 13.495 14.206 13.695 14.846 13.695C15.766 13.695 16.416 13.31 16.796 12.54H18.641C18.391 13.3 17.936 13.925 17.276 14.415C16.626 14.895 15.816 15.135 14.846 15.135C14.056 15.135 13.346 14.96 12.716 14.61C12.096 14.25 11.606 13.75 11.246 13.11C10.896 12.46 10.721 11.71 10.721 10.86C10.721 10.01 10.891 9.265 11.231 8.625C11.581 7.975 12.066 7.475 12.686 7.125C13.316 6.775 14.036 6.6 14.846 6.6C15.626 6.6 16.321 6.77 16.931 7.11C17.541 7.45 18.016 7.93 18.356 8.55C18.696 9.16 18.866 9.865 18.866 10.665ZM17.081 10.125C17.071 9.495 16.846 8.99 16.406 8.61C15.966 8.23 15.421 8.04 14.771 8.04C14.181 8.04 13.676 8.23 13.256 8.61C12.836 8.98 12.586 9.485 12.506 10.125H17.081ZM23.7438 13.47L26.0838 6.735H27.8988L24.7488 15H22.7088L19.5738 6.735H21.4038L23.7438 13.47ZM34.7414 0.839999L30.6614 17.625H28.9814L33.0464 0.839999H34.7414ZM1.591 43.046C1.591 40.6667 2.07833 38.5597 3.053 36.725C4.05633 34.8903 5.40367 33.4713 7.095 32.468C8.815 31.436 10.7213 30.92 12.814 30.92C14.362 30.92 15.8813 31.264 17.372 31.952C18.8913 32.6113 20.0953 33.5 20.984 34.618V23.18H25.929V55H20.984V51.431C20.1813 52.5777 19.0633 53.5237 17.63 54.269C16.2253 55.0143 14.6057 55.387 12.771 55.387C10.707 55.387 8.815 54.871 7.095 53.839C5.40367 52.7783 4.05633 51.3163 3.053 49.453C2.07833 47.561 1.591 45.4253 1.591 43.046ZM20.984 43.132C20.984 41.498 20.64 40.079 19.952 38.875C19.2927 37.671 18.4183 36.7537 17.329 36.123C16.2397 35.4923 15.0643 35.177 13.803 35.177C12.5417 35.177 11.3663 35.4923 10.277 36.123C9.18767 36.725 8.299 37.628 7.611 38.832C6.95167 40.0073 6.622 41.412 6.622 43.046C6.622 44.68 6.95167 46.1133 7.611 47.346C8.299 48.5787 9.18767 49.5247 10.277 50.184C11.395 50.8147 12.5703 51.13 13.803 51.13C15.0643 51.13 16.2397 50.8147 17.329 50.184C18.4183 49.5533 19.2927 48.636 19.952 47.432C20.64 46.1993 20.984 44.766 20.984 43.132ZM34.8616 28.168C33.9729 28.168 33.2276 27.867 32.6256 27.265C32.0236 26.663 31.7226 25.9177 31.7226 25.029C31.7226 24.1403 32.0236 23.395 32.6256 22.793C33.2276 22.191 33.9729 21.89 34.8616 21.89C35.7216 21.89 36.4526 22.191 37.0546 22.793C37.6566 23.395 37.9576 24.1403 37.9576 25.029C37.9576 25.9177 37.6566 26.663 37.0546 27.265C36.4526 27.867 35.7216 28.168 34.8616 28.168ZM37.2696 31.307V55H32.3676V31.307H37.2696ZM48.6075 23.18V55H43.7055V23.18H48.6075ZM59.9454 23.18V55H55.0434V23.18H59.9454ZM68.8753 28.168C67.9866 28.168 67.2413 27.867 66.6393 27.265C66.0373 26.663 65.7363 25.9177 65.7363 25.029C65.7363 24.1403 66.0373 23.395 66.6393 22.793C67.2413 22.191 67.9866 21.89 68.8753 21.89C69.7353 21.89 70.4663 22.191 71.0683 22.793C71.6703 23.395 71.9713 24.1403 71.9713 25.029C71.9713 25.9177 71.6703 26.663 71.0683 27.265C70.4663 27.867 69.7353 28.168 68.8753 28.168ZM71.2833 31.307V55H66.3813V31.307H71.2833ZM82.6211 34.747C83.3378 33.543 84.2838 32.6113 85.4591 31.952C86.6631 31.264 88.0821 30.92 89.7161 30.92V35.994H88.4691C86.5485 35.994 85.0865 36.4813 84.0831 37.456C83.1085 38.4307 82.6211 40.122 82.6211 42.53V55H77.7191V31.307H82.6211V34.747Z" fill="#CCFF00"/>
</svg>
