<svg width="25" height="25" viewBox="0 0 25 25" fill="none" xmlns="http://www.w3.org/2000/svg">
<path d="M8.49121 19.878C8.49121 19.9763 8.37891 20.0549 8.2373 20.0549C8.07617 20.0697 7.96387 19.991 7.96387 19.878C7.96387 19.7798 8.07617 19.7012 8.21777 19.7012C8.36426 19.6864 8.49121 19.765 8.49121 19.878ZM6.97266 19.657C6.93848 19.7552 7.03613 19.8682 7.18262 19.8977C7.30957 19.9468 7.45605 19.8977 7.48535 19.7994C7.51465 19.7012 7.42188 19.5882 7.27539 19.544C7.14844 19.5096 7.00684 19.5587 6.97266 19.657ZM9.13086 19.5734C8.98926 19.6078 8.8916 19.7012 8.90625 19.8142C8.9209 19.9124 9.04785 19.9763 9.19434 19.9419C9.33594 19.9075 9.43359 19.8142 9.41895 19.7159C9.4043 19.6226 9.27246 19.5587 9.13086 19.5734ZM12.3438 0.746765C5.57129 0.746765 0.390625 5.92017 0.390625 12.7345C0.390625 18.1831 3.79883 22.8455 8.66699 24.4865C9.29199 24.5995 9.51172 24.2113 9.51172 23.892C9.51172 23.5874 9.49707 21.9071 9.49707 20.8754C9.49707 20.8754 6.0791 21.6123 5.36133 19.4113C5.36133 19.4113 4.80469 17.9816 4.00391 17.6131C4.00391 17.6131 2.88574 16.8418 4.08203 16.8565C4.08203 16.8565 5.29785 16.9548 5.9668 18.1241C7.03613 20.0205 8.82812 19.4752 9.52637 19.1509C9.63867 18.3648 9.95605 17.8195 10.3076 17.4952C7.57812 17.1906 4.82422 16.7927 4.82422 12.0664C4.82422 10.7153 5.19531 10.0373 5.97656 9.17259C5.84961 8.85324 5.43457 7.53655 6.10352 5.83665C7.12402 5.5173 9.47266 7.16316 9.47266 7.16316C10.4492 6.88804 11.499 6.74556 12.5391 6.74556C13.5791 6.74556 14.6289 6.88804 15.6055 7.16316C15.6055 7.16316 17.9541 5.51239 18.9746 5.83665C19.6436 7.54147 19.2285 8.85324 19.1016 9.17259C19.8828 10.0422 20.3613 10.7202 20.3613 12.0664C20.3613 16.8074 17.4854 17.1857 14.7559 17.4952C15.2051 17.8834 15.5859 18.6203 15.5859 19.7749C15.5859 21.4306 15.5713 23.4793 15.5713 23.8822C15.5713 24.2015 15.7959 24.5896 16.416 24.4766C21.2988 22.8455 24.6094 18.1831 24.6094 12.7345C24.6094 5.92017 19.1162 0.746765 12.3438 0.746765ZM5.13672 17.6918C5.07324 17.7409 5.08789 17.8539 5.1709 17.9472C5.24902 18.0258 5.36133 18.0602 5.4248 17.9964C5.48828 17.9472 5.47363 17.8342 5.39062 17.7409C5.3125 17.6623 5.2002 17.6279 5.13672 17.6918ZM4.60938 17.2938C4.5752 17.3577 4.62402 17.4363 4.72168 17.4854C4.7998 17.5345 4.89746 17.5198 4.93164 17.451C4.96582 17.3871 4.91699 17.3085 4.81934 17.2594C4.72168 17.2299 4.64355 17.2447 4.60938 17.2938ZM6.19141 19.0428C6.11328 19.1067 6.14258 19.2541 6.25488 19.3474C6.36719 19.4604 6.50879 19.4752 6.57227 19.3966C6.63574 19.3327 6.60645 19.1853 6.50879 19.092C6.40137 18.979 6.25488 18.9642 6.19141 19.0428ZM5.63477 18.3206C5.55664 18.3698 5.55664 18.4975 5.63477 18.6105C5.71289 18.7235 5.84473 18.7726 5.9082 18.7235C5.98633 18.6596 5.98633 18.5319 5.9082 18.4189C5.83984 18.3059 5.71289 18.2568 5.63477 18.3206Z" fill="#A8B2D1"/>
</svg>
