<svg width="23" height="23" viewBox="0 0 23 23" fill="none" xmlns="http://www.w3.org/2000/svg">
<path d="M20.4444 0.189941C21.1222 0.189941 21.7722 0.44748 22.2515 0.905903C22.7308 1.36432 23 1.98608 23 2.63439V19.7455C23 20.3938 22.7308 21.0156 22.2515 21.474C21.7722 21.9324 21.1222 22.1899 20.4444 22.1899H2.55556C1.87778 22.1899 1.22776 21.9324 0.748505 21.474C0.269245 21.0156 0 20.3938 0 19.7455V2.63439C0 1.98608 0.269245 1.36432 0.748505 0.905903C1.22776 0.44748 1.87778 0.189941 2.55556 0.189941H20.4444ZM19.8056 19.1344V12.6566C19.8056 11.5999 19.3667 10.5864 18.5855 9.83918C17.8043 9.09195 16.7448 8.67216 15.64 8.67216C14.5539 8.67216 13.2889 9.30772 12.6756 10.2611V8.90439H9.11056V19.1344H12.6756V13.1088C12.6756 12.1677 13.4678 11.3977 14.4517 11.3977C14.9261 11.3977 15.3811 11.578 15.7166 11.8989C16.0521 12.2198 16.2406 12.655 16.2406 13.1088V19.1344H19.8056ZM4.95778 6.9855C5.52711 6.9855 6.07312 6.76916 6.4757 6.38409C6.87828 5.99902 7.10444 5.47674 7.10444 4.93216C7.10444 3.7955 6.14611 2.86661 4.95778 2.86661C4.38506 2.86661 3.83579 3.08423 3.43082 3.4716C3.02585 3.85896 2.79833 4.38434 2.79833 4.93216C2.79833 6.06883 3.76944 6.9855 4.95778 6.9855ZM6.73389 19.1344V8.90439H3.19444V19.1344H6.73389Z" fill="#A8B2D1"/>
</svg>
