<svg width="139" height="50" viewBox="0 0 139 50" fill="none" xmlns="http://www.w3.org/2000/svg">
<path d="M66.9606 0.015308L79.7405 -1.15152e-05L87.7181 0.0047319C90.1048 0.00158106 92.4941 0.136095 94.8268 0.643002C97.1722 1.15267 100.113 1.96534 101.747 3.08099C103.644 4.37572 105.119 5.92695 106.172 7.73469C107.46 5.7236 109.054 4.11368 110.953 2.90493C113.903 0.968311 117.296 0 121.132 0C124.555 0 127.594 0.76291 130.249 2.28873C132.964 3.81456 135.088 5.95658 136.622 8.71479C138.157 11.4143 138.924 14.554 138.924 18.1338V50H127.328V20.8627C127.328 18.75 126.945 16.9308 126.178 15.4049C125.41 13.8791 124.348 12.7054 122.991 11.8838C121.634 11.0035 119.981 10.5634 118.034 10.5634C116.205 10.5634 114.582 11.0035 113.166 11.8838C111.75 12.7054 110.658 13.8791 109.891 15.4049C109.124 16.9308 108.74 18.75 108.74 20.8627V50H97.1444V20.8627C97.1444 18.75 96.7609 16.9308 95.9937 15.4049C95.2266 13.8791 94.1349 12.7054 92.7187 11.8838C91.3614 11.0035 89.7386 10.5634 87.8503 10.5634C86.021 10.5634 84.3982 11.0035 82.982 11.8838C81.5657 12.7054 80.474 13.8791 79.7069 15.4049C78.9397 16.9308 78.5562 18.75 78.5562 20.8627V41.2459C78.5562 46.0807 74.6521 50 69.8362 50C67.932 50 66.0407 49.6869 64.2373 49.0732L36.3701 39.5897H62.2935C64.8711 39.5897 66.9606 37.492 66.9606 34.9043C66.9606 32.7083 65.4413 30.8069 63.306 30.3305L20.8156 20.8512H62.3845C64.9118 20.8512 66.9606 18.7944 66.9606 16.2571C66.9606 14.0422 65.3863 12.1426 63.2168 11.7397L0.07621 0.015308H66.9606Z" fill="#A8B2D1"/>
</svg>
