<svg width="25" height="26" viewBox="0 0 25 26" fill="none" xmlns="http://www.w3.org/2000/svg">
<path d="M21.5729 4.05999C21.5729 4.05999 23.5963 3.27093 23.427 5.18708C23.3713 5.97614 22.8656 8.73812 22.4718 11.7251L21.1229 20.5741C21.1229 20.5741 21.0104 21.8704 19.9984 22.0959C18.9869 22.3209 17.4692 21.3069 17.188 21.0813C16.963 20.9121 12.9723 18.3756 11.5671 17.136C11.1734 16.7975 10.7234 16.1215 11.6234 15.3324L17.5249 9.69593C18.1994 9.01989 18.8739 7.44177 16.0635 9.35791L8.19369 14.7121C8.19369 14.7121 7.29421 15.2761 5.60827 14.7688L1.95411 13.6412C1.95411 13.6412 0.60515 12.7959 2.90984 11.9506C8.53119 9.30166 15.4453 6.59645 21.5718 4.05999H21.5729Z" fill="#A8B2D1"/>
</svg>
